<svg width="195" height="32" viewBox="0 0 195 32" fill="none" xmlns="http://www.w3.org/2000/svg">
<path d="M157.673 6.12797C149.833 6.12797 145.148 10.8185 145.148 18.749C145.148 26.6787 149.833 31.3694 157.673 31.3694C165.511 31.3694 170.148 26.6787 170.148 18.749C170.148 10.8185 165.511 6.12797 157.673 6.12797ZM157.673 26.2922C153.847 26.2922 151.602 23.488 151.602 18.749C151.602 14.0094 153.847 11.157 157.673 11.157C161.496 11.157 163.742 14.0094 163.742 18.749C163.742 23.488 161.496 26.2922 157.673 26.2922ZM194.861 23.3907C194.861 28.3713 190.799 31.3692 183.963 31.3692C177.081 31.3692 173.065 28.2749 173.065 23.004H178.944C178.944 25.7118 180.809 27.3075 183.963 27.3075C187.022 27.3075 188.79 26.147 188.79 24.1163C188.79 21.5531 185.971 21.0697 182.816 20.538C178.657 19.861 173.686 19.0391 173.686 13.4784C173.686 8.88493 177.51 6.1282 183.963 6.1282C190.369 6.1282 194.192 9.0775 194.192 14.1067H188.313C188.313 11.5441 186.735 10.0933 183.963 10.0933C181.334 10.0933 179.757 11.1574 179.757 12.9459C179.757 15.1218 182.386 15.5576 185.445 16.0889C189.699 16.8146 194.861 17.6849 194.861 23.3907ZM86.1119 15.8475V30.8859H79.8027V16.1376C79.8027 12.9946 78.1295 11.1572 75.3087 11.1572C72.1544 11.1572 70.2903 13.5263 70.2903 17.4914V30.8859H63.9804V16.1376C63.9804 12.9946 62.3551 11.1572 59.535 11.1572C56.3325 11.1572 54.468 13.5263 54.468 17.4914V30.8859H48.1593V6.61175H54.468V12.7552L54.4481 14.9238C55.0425 10.5435 58.0479 6.1282 62.3079 6.1282C66.7228 6.1282 69.5449 8.47266 70.1606 12.755L70.2408 14.9238C70.8068 10.5435 73.7157 6.1282 77.8907 6.1282C83.0526 6.1282 86.1119 9.70655 86.1119 15.8475ZM140.941 16.0889V30.8859H134.631V16.3792C134.631 13.0914 132.91 11.1572 129.946 11.1572C126.601 11.1572 124.641 13.6227 124.641 17.7335V30.8859H118.332V6.61198H124.641V12.755L124.632 14.9238C125.248 10.5526 128.251 6.1282 132.528 6.1282C137.834 6.1282 140.941 9.80339 140.941 16.0889ZM43.6731 16.8587H43.6704C43.0178 10.0432 38.7599 6.12842 32.0015 6.12842C24.5446 6.12842 20.1473 10.7705 20.1473 18.7484C20.1473 26.6789 24.5446 31.3697 32.0015 31.3697C38.3577 31.3697 42.7016 28.1323 43.6956 22.6091H37.5385C36.8151 25.0439 34.8211 26.5343 32.0013 26.5343C28.8724 26.5343 26.8422 23.6968 26.3564 19.7675H43.7609V18.7484C43.7609 18.1207 43.7306 17.5156 43.6763 16.9298L43.6731 16.8587ZM26.3426 16.8587C26.8241 12.9423 28.8579 10.9149 32.0015 10.9149C35.0984 10.9149 37.1318 12.9423 37.5681 16.8587H26.3426ZM113.846 16.8587H113.843C113.191 10.0432 108.933 6.12842 102.174 6.12842C94.7175 6.12842 90.3201 10.7705 90.3201 18.7484C90.3201 26.6789 94.7175 31.3697 102.174 31.3697C108.531 31.3697 112.875 28.1323 113.869 22.6091H107.711C106.988 25.0439 104.994 26.5343 102.174 26.5343C99.0456 26.5343 97.0149 23.6968 96.5291 19.7675H113.934V18.7484C113.934 18.1207 113.903 17.5161 113.849 16.9305L113.846 16.8587ZM96.5154 16.8587C96.9968 12.9423 99.0307 10.9149 102.174 10.9149C105.271 10.9149 107.305 12.9423 107.741 16.8587H96.5154ZM10.2809 6.61175H17.7377V11.0122H10.2809V22.7136C10.2809 24.9862 11.7144 26.2927 14.1051 26.2927C15.2526 26.2927 16.4474 26.0019 17.3073 25.5186V30.2577C15.8734 30.9339 13.9135 31.3699 12.0973 31.3699C6.98288 31.3699 3.97126 28.4688 3.97126 23.5364V11.0122H0V6.61175H3.97126V0.5H10.2809V6.61175Z" fill="#293276"/>
</svg>
